<mxfile host="app.diagrams.net" modified="2024-06-07T13:36:41.835Z" agent="Mozilla/5.0 (Windows NT 10.0; Win64; x64) AppleWebKit/537.36 (KHTML, like Gecko) Chrome/125.0.0.0 Safari/537.36" etag="l2AVogLJzo8qAThYn70V" version="24.4.15" type="device">
  <diagram id="C5RBs43oDa-KdzZeNtuy" name="Page-1">
    <mxGraphModel dx="225" dy="1587" grid="1" gridSize="10" guides="1" tooltips="1" connect="1" arrows="1" fold="1" page="1" pageScale="1" pageWidth="827" pageHeight="1169" math="0" shadow="0">
      <root>
        <mxCell id="WIyWlLk6GJQsqaUBKTNV-0" />
        <mxCell id="WIyWlLk6GJQsqaUBKTNV-1" parent="WIyWlLk6GJQsqaUBKTNV-0" />
        <mxCell id="9nps9pQre05eP4LqWMqa-0" value="" style="endArrow=diamondThin;endFill=1;endSize=24;html=1;rounded=0;exitX=0.651;exitY=0.73;exitDx=0;exitDy=0;exitPerimeter=0;" edge="1" parent="WIyWlLk6GJQsqaUBKTNV-1" source="9nps9pQre05eP4LqWMqa-6" target="9nps9pQre05eP4LqWMqa-1">
          <mxGeometry width="160" relative="1" as="geometry">
            <mxPoint x="355" y="540" as="sourcePoint" />
            <mxPoint x="680" y="450" as="targetPoint" />
          </mxGeometry>
        </mxCell>
        <mxCell id="9nps9pQre05eP4LqWMqa-1" value="DataProcessorDecorator" style="swimlane;fontStyle=0;childLayout=stackLayout;horizontal=1;startSize=26;fillColor=none;horizontalStack=0;resizeParent=1;resizeParentMax=0;resizeLast=0;collapsible=1;marginBottom=0;whiteSpace=wrap;html=1;" vertex="1" parent="WIyWlLk6GJQsqaUBKTNV-1">
          <mxGeometry x="344" y="120" width="140" height="176" as="geometry" />
        </mxCell>
        <mxCell id="9nps9pQre05eP4LqWMqa-2" value="+ dataProcessor: DataProcessor" style="text;strokeColor=none;fillColor=none;align=left;verticalAlign=top;spacingLeft=4;spacingRight=4;overflow=hidden;rotatable=0;points=[[0,0.5],[1,0.5]];portConstraint=eastwest;whiteSpace=wrap;html=1;" vertex="1" parent="9nps9pQre05eP4LqWMqa-1">
          <mxGeometry y="26" width="140" height="32" as="geometry" />
        </mxCell>
        <mxCell id="9nps9pQre05eP4LqWMqa-3" value="+ configure(model: ModelIdentifier, database: DataIdentifier)" style="text;strokeColor=none;fillColor=none;align=left;verticalAlign=top;spacingLeft=4;spacingRight=4;overflow=hidden;rotatable=0;points=[[0,0.5],[1,0.5]];portConstraint=eastwest;whiteSpace=wrap;html=1;" vertex="1" parent="9nps9pQre05eP4LqWMqa-1">
          <mxGeometry y="58" width="140" height="78" as="geometry" />
        </mxCell>
        <mxCell id="9nps9pQre05eP4LqWMqa-4" value="+ processor(dataPoints: DataPoint)" style="text;strokeColor=none;fillColor=none;align=left;verticalAlign=top;spacingLeft=4;spacingRight=4;overflow=hidden;rotatable=0;points=[[0,0.5],[1,0.5]];portConstraint=eastwest;whiteSpace=wrap;html=1;" vertex="1" parent="9nps9pQre05eP4LqWMqa-1">
          <mxGeometry y="136" width="140" height="40" as="geometry" />
        </mxCell>
        <mxCell id="9nps9pQre05eP4LqWMqa-6" value="" style="line;strokeWidth=1;fillColor=none;align=left;verticalAlign=middle;spacingTop=-1;spacingLeft=3;spacingRight=3;rotatable=0;labelPosition=right;points=[];portConstraint=eastwest;strokeColor=inherit;" vertex="1" parent="WIyWlLk6GJQsqaUBKTNV-1">
          <mxGeometry x="150" y="540" width="409" height="8" as="geometry" />
        </mxCell>
        <mxCell id="9nps9pQre05eP4LqWMqa-8" value="" style="endArrow=none;html=1;rounded=0;entryX=0.007;entryY=0.79;entryDx=0;entryDy=0;entryPerimeter=0;" edge="1" parent="WIyWlLk6GJQsqaUBKTNV-1" target="9nps9pQre05eP4LqWMqa-6">
          <mxGeometry width="50" height="50" relative="1" as="geometry">
            <mxPoint x="153" y="630" as="sourcePoint" />
            <mxPoint x="520" y="500" as="targetPoint" />
          </mxGeometry>
        </mxCell>
        <mxCell id="9nps9pQre05eP4LqWMqa-9" value="" style="endArrow=none;html=1;rounded=0;entryX=0.488;entryY=0.73;entryDx=0;entryDy=0;entryPerimeter=0;" edge="1" parent="WIyWlLk6GJQsqaUBKTNV-1" target="9nps9pQre05eP4LqWMqa-6">
          <mxGeometry width="50" height="50" relative="1" as="geometry">
            <mxPoint x="350" y="630" as="sourcePoint" />
            <mxPoint x="415" y="548" as="targetPoint" />
          </mxGeometry>
        </mxCell>
        <mxCell id="9nps9pQre05eP4LqWMqa-10" value="" style="endArrow=none;html=1;rounded=0;entryX=0.007;entryY=0.79;entryDx=0;entryDy=0;entryPerimeter=0;" edge="1" parent="WIyWlLk6GJQsqaUBKTNV-1">
          <mxGeometry width="50" height="50" relative="1" as="geometry">
            <mxPoint x="559" y="627" as="sourcePoint" />
            <mxPoint x="560" y="543" as="targetPoint" />
          </mxGeometry>
        </mxCell>
        <mxCell id="9nps9pQre05eP4LqWMqa-11" value="DumpProcessor" style="swimlane;fontStyle=0;childLayout=stackLayout;horizontal=1;startSize=26;fillColor=none;horizontalStack=0;resizeParent=1;resizeParentMax=0;resizeLast=0;collapsible=1;marginBottom=0;whiteSpace=wrap;html=1;" vertex="1" parent="WIyWlLk6GJQsqaUBKTNV-1">
          <mxGeometry x="90" y="630" width="140" height="70" as="geometry" />
        </mxCell>
        <mxCell id="9nps9pQre05eP4LqWMqa-12" value="+ processor(dataPoint: DataPoint)" style="text;strokeColor=none;fillColor=none;align=left;verticalAlign=top;spacingLeft=4;spacingRight=4;overflow=hidden;rotatable=0;points=[[0,0.5],[1,0.5]];portConstraint=eastwest;whiteSpace=wrap;html=1;" vertex="1" parent="9nps9pQre05eP4LqWMqa-11">
          <mxGeometry y="26" width="140" height="44" as="geometry" />
        </mxCell>
        <mxCell id="9nps9pQre05eP4LqWMqa-15" value="PassthroughProcessor" style="swimlane;fontStyle=0;childLayout=stackLayout;horizontal=1;startSize=26;fillColor=none;horizontalStack=0;resizeParent=1;resizeParentMax=0;resizeLast=0;collapsible=1;marginBottom=0;whiteSpace=wrap;html=1;" vertex="1" parent="WIyWlLk6GJQsqaUBKTNV-1">
          <mxGeometry x="280" y="630" width="140" height="70" as="geometry" />
        </mxCell>
        <mxCell id="9nps9pQre05eP4LqWMqa-16" value="+ processor(dataPoint: DataPoint)" style="text;strokeColor=none;fillColor=none;align=left;verticalAlign=top;spacingLeft=4;spacingRight=4;overflow=hidden;rotatable=0;points=[[0,0.5],[1,0.5]];portConstraint=eastwest;whiteSpace=wrap;html=1;" vertex="1" parent="9nps9pQre05eP4LqWMqa-15">
          <mxGeometry y="26" width="140" height="44" as="geometry" />
        </mxCell>
        <mxCell id="9nps9pQre05eP4LqWMqa-19" value="ValidateProcessor" style="swimlane;fontStyle=0;childLayout=stackLayout;horizontal=1;startSize=26;fillColor=none;horizontalStack=0;resizeParent=1;resizeParentMax=0;resizeLast=0;collapsible=1;marginBottom=0;whiteSpace=wrap;html=1;" vertex="1" parent="WIyWlLk6GJQsqaUBKTNV-1">
          <mxGeometry x="484" y="630" width="140" height="70" as="geometry" />
        </mxCell>
        <mxCell id="9nps9pQre05eP4LqWMqa-20" value="+ processor(dataPoint: DataPoint)" style="text;strokeColor=none;fillColor=none;align=left;verticalAlign=top;spacingLeft=4;spacingRight=4;overflow=hidden;rotatable=0;points=[[0,0.5],[1,0.5]];portConstraint=eastwest;whiteSpace=wrap;html=1;" vertex="1" parent="9nps9pQre05eP4LqWMqa-19">
          <mxGeometry y="26" width="140" height="44" as="geometry" />
        </mxCell>
        <mxCell id="9nps9pQre05eP4LqWMqa-23" value="1" style="endArrow=open;html=1;endSize=12;startArrow=diamondThin;startSize=14;startFill=1;edgeStyle=orthogonalEdgeStyle;align=left;verticalAlign=bottom;rounded=0;entryX=0;entryY=0.5;entryDx=0;entryDy=0;exitX=1.007;exitY=0.843;exitDx=0;exitDy=0;exitPerimeter=0;" edge="1" parent="WIyWlLk6GJQsqaUBKTNV-1" source="9nps9pQre05eP4LqWMqa-25" target="9nps9pQre05eP4LqWMqa-3">
          <mxGeometry x="-1" y="3" relative="1" as="geometry">
            <mxPoint x="160" y="217" as="sourcePoint" />
            <mxPoint x="340" y="190" as="targetPoint" />
          </mxGeometry>
        </mxCell>
        <mxCell id="9nps9pQre05eP4LqWMqa-24" value="DataProcessor" style="swimlane;fontStyle=0;childLayout=stackLayout;horizontal=1;startSize=26;fillColor=none;horizontalStack=0;resizeParent=1;resizeParentMax=0;resizeLast=0;collapsible=1;marginBottom=0;whiteSpace=wrap;html=1;" vertex="1" parent="WIyWlLk6GJQsqaUBKTNV-1">
          <mxGeometry x="20" y="192" width="140" height="140" as="geometry" />
        </mxCell>
        <mxCell id="9nps9pQre05eP4LqWMqa-25" value="+ configure(model: ModelIdentifier, database: DataIdentifier)" style="text;strokeColor=none;fillColor=none;align=left;verticalAlign=top;spacingLeft=4;spacingRight=4;overflow=hidden;rotatable=0;points=[[0,0.5],[1,0.5]];portConstraint=eastwest;whiteSpace=wrap;html=1;" vertex="1" parent="9nps9pQre05eP4LqWMqa-24">
          <mxGeometry y="26" width="140" height="74" as="geometry" />
        </mxCell>
        <mxCell id="9nps9pQre05eP4LqWMqa-26" value="+ processor(dataPoints: DataPoint)" style="text;strokeColor=none;fillColor=none;align=left;verticalAlign=top;spacingLeft=4;spacingRight=4;overflow=hidden;rotatable=0;points=[[0,0.5],[1,0.5]];portConstraint=eastwest;whiteSpace=wrap;html=1;" vertex="1" parent="9nps9pQre05eP4LqWMqa-24">
          <mxGeometry y="100" width="140" height="40" as="geometry" />
        </mxCell>
        <mxCell id="9nps9pQre05eP4LqWMqa-28" value="" style="endArrow=none;html=1;rounded=0;align=center;verticalAlign=top;endFill=0;labelBackgroundColor=none;endSize=6;startArrow=oval;startFill=1;exitX=0.5;exitY=0;exitDx=0;exitDy=0;" edge="1" parent="WIyWlLk6GJQsqaUBKTNV-1" source="9nps9pQre05eP4LqWMqa-1">
          <mxGeometry relative="1" as="geometry">
            <mxPoint x="484" y="217" as="sourcePoint" />
            <mxPoint x="320" y="10" as="targetPoint" />
          </mxGeometry>
        </mxCell>
        <mxCell id="9nps9pQre05eP4LqWMqa-29" value="" style="line;strokeWidth=1;fillColor=none;align=left;verticalAlign=middle;spacingTop=-1;spacingLeft=3;spacingRight=3;rotatable=0;labelPosition=right;points=[];portConstraint=eastwest;strokeColor=inherit;" vertex="1" parent="WIyWlLk6GJQsqaUBKTNV-1">
          <mxGeometry x="600" y="312" width="150" height="8" as="geometry" />
        </mxCell>
        <mxCell id="9nps9pQre05eP4LqWMqa-30" value="" style="line;strokeWidth=2;direction=south;html=1;" vertex="1" parent="WIyWlLk6GJQsqaUBKTNV-1">
          <mxGeometry x="740" y="230" width="10" height="98" as="geometry" />
        </mxCell>
        <mxCell id="9nps9pQre05eP4LqWMqa-31" value="" style="line;strokeWidth=2;direction=south;html=1;" vertex="1" parent="WIyWlLk6GJQsqaUBKTNV-1">
          <mxGeometry x="740" y="320" width="10" height="98" as="geometry" />
        </mxCell>
        <mxCell id="9nps9pQre05eP4LqWMqa-32" value="" style="line;strokeWidth=2;direction=south;html=1;" vertex="1" parent="WIyWlLk6GJQsqaUBKTNV-1">
          <mxGeometry x="600" y="320" width="10" height="98" as="geometry" />
        </mxCell>
        <mxCell id="9nps9pQre05eP4LqWMqa-33" value="PostgresProcessor" style="swimlane;fontStyle=0;childLayout=stackLayout;horizontal=1;startSize=26;fillColor=none;horizontalStack=0;resizeParent=1;resizeParentMax=0;resizeLast=0;collapsible=1;marginBottom=0;whiteSpace=wrap;html=1;" vertex="1" parent="WIyWlLk6GJQsqaUBKTNV-1">
          <mxGeometry x="660" y="170" width="140" height="60" as="geometry" />
        </mxCell>
        <mxCell id="9nps9pQre05eP4LqWMqa-34" value="+ processor(dataPoint: DataPoint)" style="text;strokeColor=none;fillColor=none;align=left;verticalAlign=top;spacingLeft=4;spacingRight=4;overflow=hidden;rotatable=0;points=[[0,0.5],[1,0.5]];portConstraint=eastwest;whiteSpace=wrap;html=1;" vertex="1" parent="9nps9pQre05eP4LqWMqa-33">
          <mxGeometry y="26" width="140" height="34" as="geometry" />
        </mxCell>
        <mxCell id="9nps9pQre05eP4LqWMqa-37" value="RedisProcessor" style="swimlane;fontStyle=0;childLayout=stackLayout;horizontal=1;startSize=26;fillColor=none;horizontalStack=0;resizeParent=1;resizeParentMax=0;resizeLast=0;collapsible=1;marginBottom=0;whiteSpace=wrap;html=1;" vertex="1" parent="WIyWlLk6GJQsqaUBKTNV-1">
          <mxGeometry x="675" y="418" width="140" height="70" as="geometry" />
        </mxCell>
        <mxCell id="9nps9pQre05eP4LqWMqa-38" value="+ processor(dataPoint: DataPoint)" style="text;strokeColor=none;fillColor=none;align=left;verticalAlign=top;spacingLeft=4;spacingRight=4;overflow=hidden;rotatable=0;points=[[0,0.5],[1,0.5]];portConstraint=eastwest;whiteSpace=wrap;html=1;" vertex="1" parent="9nps9pQre05eP4LqWMqa-37">
          <mxGeometry y="26" width="140" height="44" as="geometry" />
        </mxCell>
        <mxCell id="9nps9pQre05eP4LqWMqa-41" value="ElasticProcessor" style="swimlane;fontStyle=0;childLayout=stackLayout;horizontal=1;startSize=26;fillColor=none;horizontalStack=0;resizeParent=1;resizeParentMax=0;resizeLast=0;collapsible=1;marginBottom=0;whiteSpace=wrap;html=1;" vertex="1" parent="WIyWlLk6GJQsqaUBKTNV-1">
          <mxGeometry x="520" y="420" width="140" height="70" as="geometry" />
        </mxCell>
        <mxCell id="9nps9pQre05eP4LqWMqa-42" value="+ processor(dataPoint: DataPoint)" style="text;strokeColor=none;fillColor=none;align=left;verticalAlign=top;spacingLeft=4;spacingRight=4;overflow=hidden;rotatable=0;points=[[0,0.5],[1,0.5]];portConstraint=eastwest;whiteSpace=wrap;html=1;" vertex="1" parent="9nps9pQre05eP4LqWMqa-41">
          <mxGeometry y="26" width="140" height="44" as="geometry" />
        </mxCell>
        <mxCell id="9nps9pQre05eP4LqWMqa-45" value="ModelIdentifier" style="swimlane;fontStyle=0;childLayout=stackLayout;horizontal=1;startSize=26;fillColor=none;horizontalStack=0;resizeParent=1;resizeParentMax=0;resizeLast=0;collapsible=1;marginBottom=0;whiteSpace=wrap;html=1;" vertex="1" parent="WIyWlLk6GJQsqaUBKTNV-1">
          <mxGeometry x="70" y="16" width="140" height="104" as="geometry" />
        </mxCell>
        <mxCell id="9nps9pQre05eP4LqWMqa-46" value="+ DUMP_MODE" style="text;strokeColor=none;fillColor=none;align=left;verticalAlign=top;spacingLeft=4;spacingRight=4;overflow=hidden;rotatable=0;points=[[0,0.5],[1,0.5]];portConstraint=eastwest;whiteSpace=wrap;html=1;" vertex="1" parent="9nps9pQre05eP4LqWMqa-45">
          <mxGeometry y="26" width="140" height="26" as="geometry" />
        </mxCell>
        <mxCell id="9nps9pQre05eP4LqWMqa-47" value="+ PASS_THROUGH" style="text;strokeColor=none;fillColor=none;align=left;verticalAlign=top;spacingLeft=4;spacingRight=4;overflow=hidden;rotatable=0;points=[[0,0.5],[1,0.5]];portConstraint=eastwest;whiteSpace=wrap;html=1;" vertex="1" parent="9nps9pQre05eP4LqWMqa-45">
          <mxGeometry y="52" width="140" height="26" as="geometry" />
        </mxCell>
        <mxCell id="9nps9pQre05eP4LqWMqa-48" value="+ VALIDATE_MODE" style="text;strokeColor=none;fillColor=none;align=left;verticalAlign=top;spacingLeft=4;spacingRight=4;overflow=hidden;rotatable=0;points=[[0,0.5],[1,0.5]];portConstraint=eastwest;whiteSpace=wrap;html=1;" vertex="1" parent="9nps9pQre05eP4LqWMqa-45">
          <mxGeometry y="78" width="140" height="26" as="geometry" />
        </mxCell>
        <mxCell id="9nps9pQre05eP4LqWMqa-53" value="DatabaseIdentifier&amp;nbsp;" style="swimlane;fontStyle=0;childLayout=stackLayout;horizontal=1;startSize=26;fillColor=none;horizontalStack=0;resizeParent=1;resizeParentMax=0;resizeLast=0;collapsible=1;marginBottom=0;whiteSpace=wrap;html=1;" vertex="1" parent="WIyWlLk6GJQsqaUBKTNV-1">
          <mxGeometry x="240" y="-230" width="140" height="104" as="geometry" />
        </mxCell>
        <mxCell id="9nps9pQre05eP4LqWMqa-54" value="+ POSTGRES" style="text;strokeColor=none;fillColor=none;align=left;verticalAlign=top;spacingLeft=4;spacingRight=4;overflow=hidden;rotatable=0;points=[[0,0.5],[1,0.5]];portConstraint=eastwest;whiteSpace=wrap;html=1;" vertex="1" parent="9nps9pQre05eP4LqWMqa-53">
          <mxGeometry y="26" width="140" height="26" as="geometry" />
        </mxCell>
        <mxCell id="9nps9pQre05eP4LqWMqa-55" value="+ REDIS" style="text;strokeColor=none;fillColor=none;align=left;verticalAlign=top;spacingLeft=4;spacingRight=4;overflow=hidden;rotatable=0;points=[[0,0.5],[1,0.5]];portConstraint=eastwest;whiteSpace=wrap;html=1;" vertex="1" parent="9nps9pQre05eP4LqWMqa-53">
          <mxGeometry y="52" width="140" height="26" as="geometry" />
        </mxCell>
        <mxCell id="9nps9pQre05eP4LqWMqa-56" value="+ ELASTIC" style="text;strokeColor=none;fillColor=none;align=left;verticalAlign=top;spacingLeft=4;spacingRight=4;overflow=hidden;rotatable=0;points=[[0,0.5],[1,0.5]];portConstraint=eastwest;whiteSpace=wrap;html=1;" vertex="1" parent="9nps9pQre05eP4LqWMqa-53">
          <mxGeometry y="78" width="140" height="26" as="geometry" />
        </mxCell>
        <mxCell id="9nps9pQre05eP4LqWMqa-58" value="" style="html=1;startArrow=diamondThin;startFill=1;edgeStyle=elbowEdgeStyle;elbow=vertical;startSize=10;endArrow=none;endFill=0;rounded=0;entryX=0.559;entryY=0.545;entryDx=0;entryDy=0;entryPerimeter=0;exitX=1.006;exitY=0.781;exitDx=0;exitDy=0;exitPerimeter=0;" edge="1" parent="WIyWlLk6GJQsqaUBKTNV-1" source="9nps9pQre05eP4LqWMqa-3" target="9nps9pQre05eP4LqWMqa-29">
          <mxGeometry width="160" relative="1" as="geometry">
            <mxPoint x="540" y="200" as="sourcePoint" />
            <mxPoint x="730" y="90" as="targetPoint" />
            <Array as="points">
              <mxPoint x="620" y="240" />
            </Array>
          </mxGeometry>
        </mxCell>
        <mxCell id="9nps9pQre05eP4LqWMqa-59" value="" style="line;strokeWidth=1;rotatable=0;dashed=0;labelPosition=right;align=left;verticalAlign=middle;spacingTop=0;spacingLeft=6;points=[];portConstraint=eastwest;" vertex="1" parent="WIyWlLk6GJQsqaUBKTNV-1">
          <mxGeometry x="300" y="6" width="60" height="10" as="geometry" />
        </mxCell>
        <mxCell id="9nps9pQre05eP4LqWMqa-63" value="" style="endArrow=classic;html=1;rounded=0;entryX=0.391;entryY=1.202;entryDx=0;entryDy=0;entryPerimeter=0;exitX=1.021;exitY=0.508;exitDx=0;exitDy=0;exitPerimeter=0;" edge="1" parent="WIyWlLk6GJQsqaUBKTNV-1" source="9nps9pQre05eP4LqWMqa-59" target="9nps9pQre05eP4LqWMqa-56">
          <mxGeometry width="50" height="50" relative="1" as="geometry">
            <mxPoint x="322" y="10" as="sourcePoint" />
            <mxPoint x="450" y="-10" as="targetPoint" />
          </mxGeometry>
        </mxCell>
        <mxCell id="9nps9pQre05eP4LqWMqa-64" value="" style="endArrow=classic;html=1;rounded=0;exitX=-0.013;exitY=0.828;exitDx=0;exitDy=0;exitPerimeter=0;" edge="1" parent="WIyWlLk6GJQsqaUBKTNV-1" source="9nps9pQre05eP4LqWMqa-59">
          <mxGeometry width="50" height="50" relative="1" as="geometry">
            <mxPoint x="289" y="170" as="sourcePoint" />
            <mxPoint x="210" y="61" as="targetPoint" />
          </mxGeometry>
        </mxCell>
      </root>
    </mxGraphModel>
  </diagram>
</mxfile>
